<?xml version="1.0" encoding="UTF-8"?>
<svg id="Capa_2" data-name="Capa 2" xmlns="http://www.w3.org/2000/svg" xmlns:xlink="http://www.w3.org/1999/xlink" viewBox="0 0 3242.93 3391.34">
  <defs>
    <style>
      .cls-1 {
        fill: #fff;
      }

      .cls-2 {
        fill: #b7b7b9;
      }

      .cls-3 {
        fill: url(#Degradado_sin_nombre_19);
      }

      .cls-4 {
        fill: url(#Degradado_sin_nombre_20);
      }

      .cls-5 {
        fill: url(#Degradado_sin_nombre_21);
      }

      .cls-6 {
        fill: url(#Degradado_sin_nombre_25);
      }

      .cls-7 {
        fill: url(#Degradado_sin_nombre_26);
      }

      .cls-8 {
        fill: url(#Degradado_sin_nombre_13);
      }

      .cls-9 {
        fill: url(#Degradado_sin_nombre_13-2);
      }

      .cls-10 {
        fill: url(#Degradado_sin_nombre_13-3);
      }

      .cls-11 {
        fill: url(#Degradado_sin_nombre_25-4);
      }

      .cls-12 {
        fill: url(#Degradado_sin_nombre_25-2);
      }

      .cls-13 {
        fill: url(#Degradado_sin_nombre_25-3);
      }
    </style>
    <linearGradient id="Degradado_sin_nombre_25" data-name="Degradado sin nombre 25" x1="0" y1="1709.59" x2="3568.27" y2="1709.59" gradientUnits="userSpaceOnUse">
      <stop offset="0" stop-color="#005f7c"/>
      <stop offset=".45" stop-color="#137491"/>
      <stop offset="1" stop-color="#288ba8"/>
    </linearGradient>
    <linearGradient id="Degradado_sin_nombre_26" data-name="Degradado sin nombre 26" x1="211.54" y1="2363.14" x2="3502.4" y2="2363.14" gradientUnits="userSpaceOnUse">
      <stop offset="0" stop-color="#005f7c"/>
      <stop offset=".5" stop-color="#157693"/>
      <stop offset="1" stop-color="#288ba8"/>
    </linearGradient>
    <linearGradient id="Degradado_sin_nombre_25-2" data-name="Degradado sin nombre 25" x1="135.54" y1="2847.21" x2="3508.54" y2="2847.21" xlink:href="#Degradado_sin_nombre_25"/>
    <linearGradient id="Degradado_sin_nombre_25-3" data-name="Degradado sin nombre 25" x1="158.8" y1="2332.34" x2="3497.63" y2="2332.34" xlink:href="#Degradado_sin_nombre_25"/>
    <linearGradient id="Degradado_sin_nombre_25-4" data-name="Degradado sin nombre 25" x1="59.71" y1="2063" x2="3495.82" y2="2063" xlink:href="#Degradado_sin_nombre_25"/>
    <linearGradient id="Degradado_sin_nombre_21" data-name="Degradado sin nombre 21" x1="-7.67" y1="1334.71" x2="3284.91" y2="1178.06" gradientUnits="userSpaceOnUse">
      <stop offset="0" stop-color="#9d9d9c"/>
      <stop offset=".58" stop-color="#c2c2c2"/>
      <stop offset="1" stop-color="#dadada"/>
    </linearGradient>
    <linearGradient id="Degradado_sin_nombre_13" data-name="Degradado sin nombre 13" x1="19.52" y1="1516.61" x2="3296.68" y2="1395.51" gradientUnits="userSpaceOnUse">
      <stop offset="0" stop-color="#9d9d9c"/>
      <stop offset=".59" stop-color="#c3c3c3"/>
      <stop offset="1" stop-color="#dadada"/>
    </linearGradient>
    <linearGradient id="Degradado_sin_nombre_20" data-name="Degradado sin nombre 20" x1="-9.83" y1="1201.72" x2="3294.24" y2="1201.72" gradientUnits="userSpaceOnUse">
      <stop offset="0" stop-color="#9d9d9c"/>
      <stop offset=".6" stop-color="#c4c4c3"/>
      <stop offset="1" stop-color="#dadada"/>
    </linearGradient>
    <linearGradient id="Degradado_sin_nombre_19" data-name="Degradado sin nombre 19" x1="23.86" y1="1105.53" x2="3246" y2="927.46" gradientUnits="userSpaceOnUse">
      <stop offset="0" stop-color="#9d9d9c"/>
      <stop offset=".36" stop-color="#ababaa"/>
      <stop offset="1" stop-color="#c1c1c1"/>
    </linearGradient>
    <linearGradient id="Degradado_sin_nombre_13-2" data-name="Degradado sin nombre 13" x1="7.26" y1="1136.49" x2="3243.16" y2="974.56" xlink:href="#Degradado_sin_nombre_13"/>
    <linearGradient id="Degradado_sin_nombre_13-3" data-name="Degradado sin nombre 13" x1="-8.57" y1="1273.21" x2="3280.24" y2="1162.99" xlink:href="#Degradado_sin_nombre_13"/>
  </defs>
  <g id="Capa_1-2" data-name="Capa 1">
    <g>
      <path class="cls-6" d="M20.41,1874.42c1.65-.47,2.38-.51,2.89-.86,2.76-1.87,5.48-3.78,8.18-5.73,59.57-43,122.6-80.11,189.13-111.31,48.89-22.93,98.94-42.85,150.56-58.77,57.97-17.88,116.88-31.68,176.84-41.03,48.44-7.56,97.15-11.95,146.17-12.68,32.33-.49,64.57,.9,96.82,3.47,39.22,3.13,78.07,8.56,116.6,16.42,77.91,15.9,153.27,39.86,225.84,72.34,62.16,27.83,121.35,60.98,177.12,100.21,44.25,31.12,85.84,65.42,125.16,102.52,.04-1.76,.08-3.52,.13-5.28,0,0-.04-.09-.04-.09-3.21-.4-3.88-3.36-5.35-5.44-12.3-17.36-24.48-34.8-36.83-52.13-25.47-35.74-51.63-70.98-78.75-105.47-31.23-39.72-63.3-78.74-97.19-116.28-28.11-31.13-56.96-61.46-88.36-89.29-5.93-5.26-11.8-10.76-19.04-14.36-12.64-4.17-25.25-8.44-37.93-12.49-62.86-20.12-126.87-35.34-192.16-45.2-34.93-5.28-70.02-8.85-105.26-10.86-51.26-2.92-102.51-2.54-153.75,1.46-31.89,2.49-63.65,5.92-95.23,10.83-61.22,9.5-121.6,22.79-181.06,40.38-51.45,15.22-101.82,33.33-151.13,54.38-64.1,27.38-125.67,59.68-184.84,96.55-2.79,1.74-5.4,3.98-8.93,4.2v12c2.95,7.91,2.69,16.34,3.24,24.5,2.9,42.22,7.33,84.28,13.09,126.19,.99,7.24,.83,14.95,4.07,21.81Z"/>
      <path class="cls-7" d="M1484.76,2730.28c-49.61-6.27-98.58-15.5-146.92-28.3-82.41-21.83-161.48-52.25-236.79-92.17-98.39-52.16-187.35-117.3-266-196.25-8.23-8.26-17.01-14.49-28.25-17.66-14.26-4.02-29-6.43-43-10.86-14.54-4.6-29.2-6.03-43.96-6.61-47.21-1.83-92.58,8.43-137.22,22.61-6.89,2.19-13.61,4.94-20.16,7.34-.04,2.56,1.17,3.77,2.16,5.08,50.5,66.92,106.57,128.75,168.38,185.42,54.17,49.67,112.39,94.08,174.07,133.85,59.67,38.48,122.1,72.01,187.32,100.25,68.58,29.69,139.06,53.73,211.61,71.6,32.96,8.12,66.23,14.88,99.73,20.44,39.1,6.49,78.41,11.45,117.93,14.45,33.23,2.52,66.57,3.67,99.86,3.54,26.28-.1,52.59-1.29,78.88-2.62,38.32-1.93,76.28-6.63,114.17-12.11,34.89-5.05,69.43-12.12,103.84-19.88,75.89-17.12,149.34-41.71,220.82-72.16,68.15-29.03,133.19-64.02,195.56-104.11,71.16-45.74,137.2-97.96,198.3-156.3,52.61-50.24,100.39-104.86,143.97-163.24,73.22-98.08,131.41-204.28,175.44-318.42,17.04-44.18,31.03-89.29,43.44-134.91,10.4-38.23,18.28-77.04,25.02-116.1,3.4-19.69,6.44-39.41,8.26-59.31-65.78,0-131.55,.02-197.33,0-2.3,0-4.61-.4-6.91-.62-3.83,13.79-5.15,28.04-7.64,42.07-10.09,56.85-25.49,112.25-44.33,166.75-22.7,65.68-51.73,128.55-86.46,188.63-48.59,84.05-106.97,160.74-175.86,229.39-35.47,35.35-72.65,68.68-112.42,99.05-85.79,65.51-179.11,117.62-280,156.11-50.06,19.1-113.41,38.22-160.08,47.92-29.32,6.1-58.72,11.74-88.47,15.53-32.72,4.18-65.51,7.55-98.46,8.93-63.01,2.64-125.83,.56-188.48-7.36Z"/>
      <path class="cls-12" d="M784.96,3011.84c98.34,59.59,202.03,107.63,310.66,145.04,84.81,29.21,171.55,50.75,260.02,65.76,66.77,11.33,133.99,17.95,201.54,20.58,59.58,2.31,119.19,1.29,178.77-2.86,61.54-4.28,122.55-12.02,183.14-23.26,77.01-14.28,152.51-34.36,226.67-59.6,81.48-27.73,160.11-61.99,236.12-102.34,44.74-23.75,88.46-49.28,130.66-77.28,79.26-52.6,153.92-111.02,222.85-176.76,50.95-48.6,99.1-99.68,143.51-154.34,48.6-59.83,92.79-122.75,132.75-188.65,1.49-2.46,4.06-4.69,2.42-8.12-3.57,1.19-7.26,.62-10.88,.62-59.51,.03-119.02,.03-178.53,0-6.31,0-12.62-.21-18.93-.32-4.97,3.63-7.77,9.06-11.21,13.9-36.19,50.85-75.77,98.96-118.37,144.49-60.93,65.11-127.43,124.03-199.35,176.86-61.89,45.46-126.83,85.94-195.11,120.96-78.68,40.35-160.34,73.41-245.08,98.83-73.79,22.13-148.92,38.13-225.23,48.24-41.24,5.46-82.64,9.63-124.3,11.09-44.64,1.57-89.22,1.99-133.84-.3-53.24-2.73-106.2-7.87-158.87-16.29-43.08-6.89-85.73-15.71-127.97-26.57-85.15-21.89-167.81-50.81-247.7-87.64-73.05-33.67-142.81-73.12-209.28-118.41-47.68-32.5-93.04-67.97-136.69-105.7-34.29-29.64-66.82-61.14-98.18-93.77-20.06-20.88-38.63-43.21-57.49-65.21-21.26-24.79-41.63-50.3-60.03-77.33-3.27-4.81-3.42-4.78-9.18-.4-45.61,34.7-82.78,76.97-113.08,125.54-3.61,5.78-1.45,8.87,1.73,13.01,50.21,65.42,105.26,126.49,164.7,183.62,30.28,29.1,61.85,56.78,94.33,83.37,59.89,49.03,123.25,93.14,189.46,133.26Z"/>
      <path class="cls-13" d="M1416.06,2439.07c-88.73-21.15-162.37-67.14-221.02-137.05-9-10.73-18.17-21.27-27.76-31.47-48.56-51.7-104.4-93.85-166.79-127.42-47.74-25.68-98.17-44.27-150.68-57.58-43.8-11.1-88.26-16.59-133.34-17.51-35.04-.71-69.81,2.6-104.42,7.9-45.51,6.96-90.01,17.95-133.56,32.87-51.34,17.58-99.92,40.87-146.62,68.53-23.84,14.12-46.67,29.55-68.69,46.18-35.68,26.95-68.89,56.75-99.19,89.73-6.38,6.95-6.53,6.82-2.47,15.2,20.45,42.29,43.16,83.37,66.64,124.02,1.23,2.14,1.81,5.1,5.64,5.8,3.59-4.39,7.4-8.99,11.14-13.64,31.44-38.99,67.25-73.53,107.17-103.69,65.86-49.76,138.68-85.37,218.68-106.1,35.19-9.12,70.8-15.85,107.08-18.49,70.74-5.16,138.69,7.68,204.16,33.79,70.04,27.93,130.74,69.87,181.87,125.42,12.63,13.72,24.61,28.03,37.1,41.88,43.52,48.26,94.37,87.01,152,116.95,28.43,14.77,57.75,27.45,88.34,36.88,39.21,12.08,79.27,20.38,120.24,23.57,29.91,2.33,59.89,2.58,89.81,.31,28.9-2.19,57.47-6.92,85.68-13.61,10.63-2.52,21.08-5.77,32.72-8.99-7.46-20.5-14.43-39.53-21.31-58.6-8.58-23.79-17.05-47.63-25.64-71.42-3.07-8.5-3.2-8.57-12.13-6.24-17.73,4.63-35.7,7.78-53.87,10.31-47.47,6.6-94.45,3.54-140.8-7.51Z"/>
      <path class="cls-11" d="M1394.06,2132.87c-21.65-26.7-45.29-51.61-70.19-75.21-48.25-45.73-100.61-86.17-157.64-120.56-65.05-39.23-133.89-69.78-206.44-92.06-54.87-16.85-110.83-28.26-167.98-34.01-45.85-4.62-91.73-5.6-137.67-2.56-48.23,3.19-95.93,10.52-143.19,20.53-65.94,13.97-129.73,34.9-191.64,61.43-41.65,17.85-81.83,38.7-120.7,62.03-46.93,28.16-91.07,60.23-133.58,94.66-5.85,4.74-6.13,8.8-4.37,15.14,7.74,27.91,16.61,55.47,25.83,82.91,4.86,14.47,10.32,28.74,15.72,43.69,5.33-2.66,8.07-6.1,11.19-9.02,69.15-64.5,146.34-117.18,231.98-157.26,66.27-31.02,135.23-54.1,207.11-68.23,41.87-8.23,84.02-14.12,126.68-15.96,46.04-1.99,91.87,.65,137.41,7.64,44.17,6.77,87.38,17.54,129.66,32.08,78.06,26.86,150.24,64.74,216.31,114.34,48.44,36.37,92.52,77.3,130.9,124.2,25.06,30.63,54.89,55.29,90.25,72.92,58.38,29.1,119.58,37.08,183.44,22.88,7.2-1.6,7.37-1.77,4.87-8.91-4.83-13.82-9.86-27.57-14.88-41.33-8.33-22.83-16.83-45.59-24.97-68.48-1.77-4.97-4.29-6.55-9.54-6.01-11.61,1.2-23.28,1.26-34.87-.57-38.21-6.02-69.33-24.26-93.67-54.26Z"/>
    </g>
    <path class="cls-2" d="M1435.72,1938.99c.04-1.76,.08-3.52,.13-5.28,1.93,.79,2.83,2.45,3.36,4.27,.31,1.07,1.04,2.68-.77,3.05-1.28,.26-2.25-.77-2.72-2.04Z"/>
    <g>
      <path class="cls-5" d="M3240.89,1575.62c-.16-8.66-.22-17.33-.15-25.99,.17-21.3-2.02-42.43-3.58-63.64-1.24-16.89-2.67-33.79-4.8-50.53-3.23-25.3-6.29-50.64-10.67-75.8-4.6-26.47-9.19-52.93-14.91-79.19-12.03-55.21-26.5-109.79-44.28-163.4-16.75-50.5-35.52-100.31-57-149.03-7.25-16.44-15.43-32.47-23.02-48.77-20.25-43.49-43.17-85.58-67.7-126.75-23.67-39.73-48.91-78.48-76.04-116-19.69-27.23-39.94-54.01-61.1-80.09-12.98-16-26.93-31.22-40.21-46.98-32.46-38.53-68.78-73.36-104.83-108.38-24.08-23.39-49.56-45.29-75.53-66.64-22.61-18.6-45.45-36.87-68.96-54.3-38.23-28.35-77.59-55.01-118.2-79.89-46.31-28.37-93.95-54.23-142.68-78.14-30.77-15.1-62.2-28.75-93.91-41.75-36.64-15.01-73.82-28.57-111.46-40.8-60.07-19.52-121.04-35.64-183.09-47.73-29.32-5.71-58.67-11.29-88.26-15.14-19.07-2.48-38.13-5.14-57.3-7.11-27.42-2.82-54.92-4.34-82.34-7.11-9.91-1-19.97-.39-29.96-.68-3.21-.09-6.74,.98-9.49-1.79h-99.97c-2.75,2.76-6.28,1.79-9.49,1.77-27.31-.2-54.52,2.26-81.63,4.69-48.59,4.35-96.99,10.61-145.01,19.42-50.67,9.29-100.9,20.45-150.51,34.45-52.55,14.83-104.28,32.07-155.09,52-52.71,20.67-104.46,43.6-154.58,69.98-38.17,20.09-75.46,41.74-112.22,64.42-51.91,32.03-101.53,67.19-149.25,105-33.64,26.65-66.12,54.77-97.56,84.09-23.17,21.6-45.66,43.85-67.6,66.65-39.27,40.82-75.71,84.09-110.52,128.78-37.7,48.41-71.83,99.24-103.95,151.45-12.73,20.69-24.58,41.95-36.15,63.31-11.9,21.96-23.29,44.2-34.33,66.61-23.11,46.92-43.51,95.02-61.71,144.05-22.72,61.2-41.55,123.56-56.95,187-10.9,44.93-19.73,90.26-26.76,135.91-4.6,29.88-7.61,59.98-10.91,90.05-2.21,20.17-2.25,40.49-5.32,60.57-.9,5.9,1.39,7.45,6.89,4.65,10.98-5.59,21.7-11.67,32.61-17.39,45.46-23.83,92.16-44.97,139.96-63.6,7.61-2.96,9.83-7.56,10.67-14.7,5.36-45.25,13.46-90.02,23.49-134.46,18.65-82.66,44.62-163,77.16-241.17,20.11-48.3,43.48-95.05,68.66-140.94,18.93-34.49,39.4-68.02,61.14-100.73,23.4-35.21,48.16-69.49,74.94-102.29,21.91-26.83,43.88-53.58,68.08-78.41,2.27-2.33,4.07-5.29,7.7-6.55,5,4.97,7.81,11.47,11.32,17.42,37.54,63.67,75.02,127.37,112.38,191.15,24.35,41.58,48.32,83.38,72.7,124.94,27.6,47.04,55.59,93.86,83.21,140.89,37.6,64.02,74.96,128.17,112.52,192.21,27.62,47.09,55.41,94.09,83.08,141.15,18.56,31.57,37.09,63.15,55.51,94.79,2.49,4.28,5.53,8.38,6.31,13.5,7.24,3.59,13.11,9.1,19.04,14.36,31.39,27.83,60.25,58.16,88.36,89.29,33.89,37.53,65.96,76.56,97.19,116.28,27.12,34.49,53.28,69.73,78.75,105.47,12.35,17.33,24.53,34.77,36.83,52.13,1.47,2.08,2.15,5.03,5.35,5.44,.7-4.55-1.43-8.51-2.88-12.51-19.68-54.09-39.56-108.1-59.2-162.21-23.62-65.05-47.02-130.18-70.62-195.24-3.74-10.31-6.86-21.1-12.25-30.52-25.12-43.91-50.9-87.45-76.52-131.08-22.92-39.03-46.02-77.97-68.91-117.02-30.97-52.84-61.78-105.78-92.74-158.63-25.91-44.23-51.96-88.38-77.91-132.59-26.63-45.36-53.23-90.73-79.82-136.11-23.56-40.21-47.05-80.46-70.67-120.64-15.98-27.2-31.76-54.52-48.87-81.04-7.16-11.09-13.65-22.63-20.2-34.1-11.17-19.56-22.05-39.28-33.23-58.83-7.77-13.58-15.84-26.99-23.74-40.49-1.87-3.2-3.88-6.21,.28-9.55,18.4-14.79,36.53-29.9,55-44.61,17.32-13.8,36.05-25.6,54.43-37.92,42.07-28.2,84.9-55.15,129.55-78.99,72.65-38.78,147.77-72.02,226.06-97.86,58.77-19.39,118.36-35.72,179.16-47.39,22.49-4.31,44.96-9.03,67.64-11.91,25.34-3.22,50.72-6.34,76.15-9,23.82-2.48,47.67-4.51,71.53-5.06,23.88-.55,47.77-1.71,71.73-.86,31.59,1.11,63.27-.19,94.78,2.86,9.95,.96,19.97,.79,29.82,2.12,24,3.24,48.08,5.76,72.06,9.22,23,3.32,45.94,6.93,68.73,11.36,43.71,8.49,87.04,18.67,129.75,31.32,39.23,11.62,78.31,23.91,116.33,38.99,52.27,20.73,103.61,43.63,153.37,70.03,35.01,18.58,69.31,38.33,102.78,59.5,38.54,24.38,75.41,51.14,111.53,79.03,35.06,27.08,68.75,55.71,100.93,86.07,37.55,35.42,73.29,72.62,106.83,111.95,17.06,20,33.65,40.37,49.8,61.07,23.13,29.64,44.41,60.63,65.02,92.09,25.92,39.57,49.63,80.42,71.41,122.38,10.43,20.09,20.31,40.46,29.84,61.01,17.09,36.86,32.47,74.41,46.29,112.55,21.2,58.48,38.7,118.12,51.98,178.9,5.59,25.58,10.41,51.33,14.73,77.2,3.49,20.94,6.28,41.97,9.16,62.98,2.16,15.77,2.46,31.79,4.59,47.56,3.74,27.73,4.23,55.67,5.19,83.49,1.61,46.87,.86,93.81-3.27,140.63-1.43,16.19-2.16,32.43-4,48.61-2.91,25.7-5.79,51.37-9.94,76.93-5.54,34.07-11.84,67.96-19.68,101.56-9.29,39.81-20.46,79.08-32.85,118.05-10.39,32.68-21.95,64.93-34.93,96.59-21.59,52.66-45.4,104.33-73.32,154.05-22.33,39.77-45.53,78.96-71.38,116.56-3.54,5.15-8.09,9.79-9.61,16.17,6.31,.11,12.62,.31,18.93,.32,59.51,.03,119.02,.04,178.53,0,3.63,0,7.32,.57,10.88-.62,2.65-.44,3.67-2.59,4.87-4.59,15.17-25.07,28.94-50.92,42.36-76.94,14.79-28.7,29.02-57.66,42-87.27,17.51-39.92,33.88-80.26,48.39-121.35,11.84-33.54,22.58-67.46,31.88-101.81,9.45-34.92,18-70.05,25.53-105.44,5.03-23.68,9.5-47.46,13.27-71.35,3.25-20.62,5.5-41.4,8.51-62.06,2.06-14.14,3.04-28.35,4.43-42.55,2.38-24.45,5.03-48.85,5.4-73.44,.16-10.66,0-21.33,.2-31.99,.06-3.16-1.21-6.77,2.03-9.29v-78c-2.97-2.2-1.98-5.44-2.04-8.3Z"/>
      <path class="cls-8" d="M2931.2,1783.88c1.02-.97,1.5-2.18,1.48-3.57-.27-18.01,3.39-35.68,4.71-53.57,1.07-14.54,2.81-29.17,3.02-43.67,.8-55.23,1.8-110.47-3.12-165.67-1.97-22.15-4.54-44.25-6.94-66.33-2.73-25.02-7.34-49.87-11.93-74.64-9.75-52.64-23.07-104.41-39.48-155.37-16.02-49.76-34.72-98.46-56.29-146.1-22.7-50.13-48.7-98.49-77.45-145.33-26.12-42.55-54.56-83.57-85.58-122.77-28.31-35.77-58.06-70.26-89.8-103.02-25.73-26.56-52.41-52.14-80.45-76.25-17.14-14.74-34.36-29.45-52.21-43.31-35.22-27.36-71.46-53.31-109.21-77.13-31.55-19.9-63.65-38.8-96.72-56.02-31.31-16.31-63.46-30.85-95.76-45.09-4.95-2.18-10.68-1.35-15.15-4.57-9.34-6.74-19.94-10.08-31.04-12.63-10.91-2.5-20.53-8.68-31.07-12.28-53.19-18.2-107.06-33.93-162.15-45.48-47.47-9.95-95.25-17.99-143.49-22.72-30.73-3.01-61.63-5.14-92.49-5.88-29.91-.72-59.86-.9-89.85,.88-29.52,1.76-59.02,3.19-88.48,6.19-18.85,1.92-37.68,4.03-56.32,7.07-44.57,7.26-88.91,15.73-132.66,27.24-51.85,13.64-102.93,29.61-152.82,49.19-48.04,18.86-94.85,40.5-140.41,64.81-33.22,17.72-65.46,37.05-97.08,57.45-6.35,4.1-8.51,5.68-3.61,14.05,31.27,53.45,62,107.21,92.9,160.88,4.3,7.47,4.73,7.58,12.12,2.95,16.08-10.06,32.03-20.35,48.29-30.12,40.24-24.18,81.89-45.63,125.09-64.06,39.5-16.86,79.51-32.3,120.62-44.81,31.81-9.68,63.96-18.01,96.59-24.48,38.77-7.69,77.71-14.04,117.06-18.11,24.15-2.5,48.36-4.14,72.55-5.05,40.9-1.55,81.79-.22,122.66,3.04,32.8,2.62,65.29,7.06,97.8,11.93,49.43,7.41,97.66,19.8,145.45,33.9,58.83,17.35,115.24,41.04,170.15,68.23,28.63,14.18,56.49,29.8,83.86,46.36,44.23,26.78,85.79,57.22,126.04,89.55,21.27,17.09,41.2,35.73,61.49,53.96,3.05,2.74,4.19,5.34,2.57,9.59-5.09,13.36-9.62,26.94-14.56,40.36-12.64,34.33-25.56,68.56-38.06,102.94-15.91,43.77-31.41,87.68-47.3,131.46-19.41,53.47-39.09,106.85-58.56,160.3-14.46,39.7-28.67,79.48-43.15,119.17-19.6,53.75-39.43,107.41-59.01,161.16-12.41,34.07-24.41,68.28-36.82,102.36-24.35,66.9-48.92,133.72-73.27,200.62-20.26,55.64-40.28,111.37-60.53,167.02-25.71,70.66-51.45,141.3-77.39,211.87-3.98,10.83-6.88,22.15-12.6,32.5-2.44-1.8-2.75-4.11-3.34-6.29-21.88-81.55-43.81-163.08-65.62-244.65-23.87-89.28-47.55-178.6-71.44-267.87-24.06-89.92-48.35-179.78-72.4-269.7-16.5-61.66-32.66-123.41-49.17-185.07-24.25-90.56-48.68-181.07-73.01-271.61-2.6-9.67-2.54-9.73-12.6-9.73-49.98-.03-99.97-.03-149.95-.03-2,0-4,.02-5.99,.11-3.01,.14-4.07,1.95-3.6,4.69,.34,1.96,1.01,3.85,1.53,5.78,16.56,61.65,33.18,123.28,49.66,184.95,26.52,99.25,52.87,198.54,79.42,297.77,18.82,70.33,37.93,140.59,56.76,210.92,16.51,61.66,32.76,123.38,49.23,185.05,19.13,71.63,38.37,143.22,57.55,214.83,13.5,50.42,26.97,100.84,40.48,151.25,16.44,61.33,32.94,122.64,49.34,183.98,14.25,53.31,28.37,106.66,42.68,159.95,.89,3.31,.9,7.27,4.67,9.86,8.77-7.63,17.04-15.83,25.39-23.83,33.69-32.25,66.86-65.05,100.29-97.57,10.02-9.75,20.14-19.4,30.25-29.06,27.22-26,53.54-52.93,81.07-78.61,2.71-2.52,4.67-5.34,5.97-8.98,11.15-31.34,22.51-62.61,33.86-93.89,14.18-39.09,28.36-78.18,42.61-117.25,19.49-53.45,39.08-106.85,58.54-160.31,14.45-39.7,28.73-79.46,43.15-119.17,20.44-56.28,40.95-112.54,61.42-168.82,14.21-39.08,28.38-78.17,42.6-117.25,22.99-63.14,46.02-126.27,69-189.42,16.27-44.7,32.44-89.44,48.7-134.14,20.7-56.89,41.43-113.77,62.16-170.65,12.3-33.75,24.64-67.49,36.97-101.23,.65-1.79,.9-3.99,4.3-3.95,7.17,10.72,14.84,21.56,21.87,32.79,26.68,42.66,50.59,86.81,71.61,132.57,15.15,33,28.54,66.67,40.48,100.92,13.8,39.58,25.06,79.92,33.96,120.88,7.89,36.31,14.4,72.84,18.6,109.85,2.85,25.08,5.9,50.22,6.82,75.32,1.78,48.57,2.04,97.25-1.86,145.77-.71,8.85-1.43,17.82-2.84,26.71-2.4,15.05-3.38,30.33-4.96,45.51,2.3,.22,4.61,.62,6.91,.62,65.78,.02,131.55,0,197.33,0Z"/>
      <path class="cls-4" d="M2001.52,1000.65c-14.43,39.71-28.77,79.46-43.22,119.16-20.25,55.65-40.57,111.27-60.86,166.91-12.31,33.76-24.64,67.51-36.94,101.27-13.67,37.51-27.27,75.05-41,112.54-2.25,6.14-2.86,11.95-.8,18.44,22.58,71.35,44.94,142.78,67.38,214.18,5.16,16.41,10.43,32.79,15.99,50.27,1.29-2.26,2.11-3.32,2.54-4.52,18.89-51.9,37.75-103.8,56.59-155.72,14.41-39.72,28.77-79.46,43.2-119.17,20.34-55.97,40.75-111.91,61.11-167.88,14.33-39.39,28.58-78.81,42.92-118.2,20.25-55.65,40.54-111.28,60.83-166.91,11.51-31.57,23.14-63.09,34.59-94.68,13.26-36.59,26.23-73.29,39.71-109.8,2.17-5.86,.83-9.25-3.66-12.77-35.67-27.98-73.11-53.39-112.18-76.32-36.78-21.59-74.85-40.71-114.14-57.39-41.4-17.57-83.72-32.42-127.13-44.17-53.63-14.52-108.02-24.65-163.34-30.43-27.16-2.84-54.35-4.12-81.54-5.1-20.91-.76-41.87-.09-62.85,.98-31.23,1.59-62.26,4.33-93.25,8.33-29.02,3.75-57.73,9.05-86.22,15.53-60.48,13.75-119.14,33.09-176.11,57.7-57.03,24.64-111.1,54.59-162.64,89.2-7.08,4.75-7.07,4.86-2.89,12.12,30.09,52.21,60.2,104.4,90.3,156.6,7.41,12.86,7.53,13.02,19.19,4.82,55.9-39.27,115.94-70.63,180.21-93.69,52.35-18.79,105.88-33.03,161.17-40.45,30.66-4.11,61.27-7.95,92.26-7.77,23.99,.14,48.05-.77,71.95,.78,25.46,1.65,50.82,4.99,76.09,9.02,37.49,5.98,74.23,14.84,110.47,25.99,55.58,17.1,108.49,40.34,159.1,68.93,7.72,4.36,7.95,4.3,4.76,13.15-7.11,19.72-14.44,39.35-21.6,59.05Z"/>
      <path class="cls-3" d="M1651.43,1010.17c-.52,45.79,36.41,83.15,81.6,83.6,43.75,.44,83.72-33.07,83.75-82.46,.02-48.6-37.79-82.67-82.14-83.04-47.69-.4-83.12,38.21-83.21,81.89Z"/>
      <path class="cls-9" d="M681.29,1009.67c-6.6-10.39-12.56-21.19-18.78-31.83-24.54-41.96-49-83.96-73.67-125.84-5.52-9.37-10.3-19.27-18.15-28.85-130.96,174.05-214.59,367.3-251.25,582.88,5.04-1.1,8.3-1.63,11.46-2.52,65.68-18.48,132.45-31.69,199.96-41.27,5.68-.81,6.99-3.91,8.16-8.25,4.31-16.06,8.41-32.18,13.06-48.14,15.65-53.79,35.47-106.02,59.39-156.68,20.64-43.71,43.64-86.15,69.74-126.86,2.95-4.61,3.03-8.01,.09-12.64Z"/>
      <path class="cls-10" d="M659.46,1350.03c1.58,.11,3.21,.33,4.83,.31,48.56-.48,97.12-.89,145.54,3.72,17.17,1.64,34.29,3.94,51.48,5.27,8.29,.64,16.58,2.82,26.37,1.9-45.76-77.9-90.83-154.65-136.07-231.66-21.67,21.45-92.66,191.89-92.16,220.46Z"/>
    </g>
    <path class="cls-1" d="M1348.59,3388.89c.55,.66,1.18,1.52,.41,2.18-.87,.74-1.39-.12-1.73-.91,.41-.45,.85-.87,1.32-1.26Z"/>
  </g>
</svg>